<?xml version="1.0" encoding="utf-8"?>
<!-- Generator: Adobe Illustrator 18.1.0, SVG Export Plug-In . SVG Version: 6.00 Build 0)  -->
<!DOCTYPE svg PUBLIC "-//W3C//DTD SVG 1.1//EN" "http://www.w3.org/Graphics/SVG/1.1/DTD/svg11.dtd">
<svg version="1.1" id="Layer_1" xmlns="http://www.w3.org/2000/svg" xmlns:xlink="http://www.w3.org/1999/xlink" x="0px" y="0px"
	 width="808.8px" height="141.8px" viewBox="0 0 808.8 141.8" enable-background="new 0 0 808.8 141.8" xml:space="preserve">
<path d="M185.5,31.9c-6.9,0-12.3,1.9-16.1,6c0.3-1.2,0.4-4.4,0.4-6.6V13.4c0-5.2-0.1-8.3-0.7-13.4l-20.4,4.7c1,4.3,1.1,9.3,1.1,18.6
	v69.9c0,10.5,0,12.7-1.5,15.7h17.7c1.3-2,1.5-2.6,2.1-5.3c4.3,4.7,9.4,7,16.8,7c6.2,0,11.4-1.7,16.5-5.8c9.3-7.4,14-19.3,14-34.6
	C215.5,46.6,204,31.9,185.5,31.9z M190.8,88.1c-1.6,4-4.9,5.9-9.8,5.9c-5.3,0-8.2-2.5-11.2-4.9V54.3c3-2.8,6.2-6,11.4-6
	s9.4,3.1,10.9,9.6c0.7,3.2,0.9,6,0.9,12.8C193,80,192.6,83.9,190.8,88.1z M107,32.2c-10,0-17.6,3.2-23.8,10.2
	c-6.6,7.4-9.4,16.4-9.4,29.9c0,23.8,14,39.1,35.7,39.1c10.6,0,19.8-3.4,28.5-10.5l-7.7-11.8c-6,5-12.5,7.5-19.3,7.5
	c-10.2,0-16.1-6.6-16.1-18.3v-0.4h44v-4.7c0-15.8-3.1-26-10-33C123.9,35.1,115.7,32.2,107,32.2z M117.8,62.9h-22
	c0-10.4,4.1-16.3,11.6-16.3c4,0,6.5,1.5,8.4,4.4c1.8,2.8,2,5.8,2,11.4V62.9z M52.4,36.9c-4.1-2.8-9.6-4.6-14.9-4.6
	c-7.7,0-15.2,3-18.6,7.1c-0.2-2.4-0.6-4.4-1.3-7.1l-17.7,3.1c1,6.3,1,9.1,1,19v87.3l19-5v-23.6c0-2.2,0.2-4.4-0.1-6.2
	c4.3,2.5,10,4,15.9,4c8.3,0,15.1-3.1,20.3-8.6c7.8-8.4,10.5-16.7,10.5-32.9C66.4,52.1,60.5,42.3,52.4,36.9z M31.5,95.3
	c-4,0-8.7-2.2-10.7-4.4V54.1c3-3.7,8-5.8,12.9-5.8c4.9,0,7.8,2.2,9.3,6.3c1.3,3.7,2,9.4,2,16.7C45,88.7,41.3,95.3,31.5,95.3z
	 M262.9,31.9c-6.9,0-12.4,1.9-16.3,6c0.3-1.2,0.3-4.4,0.3-6.6V13.4c0-5.2,0-8.3-0.6-13.4l-20,4.7c1,4.3,1.5,9.3,1.5,18.6v69.9
	c0,10.5-0.7,12.7-2.2,15.7h17.7c1.3-2,1.5-2.6,2.1-5.3c4.3,4.7,9.4,7,16.8,7c6.2,0,11.4-1.7,16.5-5.8c9.3-7.4,14-19.3,14-34.6
	C292.8,46.6,281.3,31.9,262.9,31.9z M268.2,88.1c-1.6,4-4.6,5.9-9.4,5.9c-5.3,0-8.9-2.5-10.9-4.9V54.3c2-2.8,5.9-6,11-6
	s9.2,3.1,10.7,9.6c0.7,3.2,0.8,6,0.8,12.8C270.4,80,269.9,83.9,268.2,88.1z M677.8,3.2l-19-3.1v26c0,4.4,0.1,9.6,0.4,11.2
	c-3.7-3-8.1-4.3-13.5-4.3c-19.2,0-32.4,16.2-32.4,39.8c0,23.5,12.1,38.4,31.3,38.4c6.8,0,12.4-2.1,17.2-6.3c0.3,2.1,1,3.2,1,4.4
	v-0.4h18c-1.3-3-3-8.6-3-27.2V3.2z M658.8,89.7c-2,2.4-6.1,4.9-9.8,4.9c-10.3,0-13.7-5.3-13.7-21.5c0-16.8,3.8-24.1,12.7-24.1
	c3.5,0,7.1,2,10.8,5h0.1V89.7z M525.3,88.8l9,12c-3,2.9-4.3,4-6.9,5.6c-5.3,3.1-11.2,4.7-18.4,4.7c-20.8,0-32.9-14.5-32.9-38.9
	c0-17.4,6.6-28.9,15.5-35c5-3.4,12.4-5.6,18.7-5.6c5,0,10.5,1.2,14.6,3.4c2.8,1.5,4.1,2.5,7.4,5.3l-9.6,13c-4-3.7-8.3-5.9-11.9-5.9
	c-8.9,0-12.8,7.7-12.8,25.4c0,9.9,1.3,15.8,3.8,19c2.1,2.7,5.5,4.3,8.9,4.3c4.6,0,8.7-1.9,13.6-6.2L525.3,88.8z M570.9,32.3
	c-20.4,0-33.9,15.8-33.9,39.5c0,23.8,13.4,39.1,33.9,39.1c11.7,0,19.2-4,24.9-10.5c6.5-7.4,9.4-16.2,9.4-29.2
	c0-12.2-2.7-20.5-8.7-27.6C590,36,581.6,32.3,570.9,32.3z M571.5,96.6c-3.8,0-8.3-2.1-10-6.2c-1.6-3.8-2.5-10.3-2.5-19
	c0-7.5,0.7-12.8,2.1-16.8c1.6-4.7,5.5-7.7,10.2-7.7c3.5,0,6.6,1.5,8.6,4c2.7,3.4,4,10,4,20.2C583.7,89,580,96.6,571.5,96.6z
	 M723.5,32.2c-10,0-17.6,3.2-23.7,10.2c-6.6,7.4-9.4,16.4-9.4,29.9c0,23.8,14,39.1,35.7,39.1c10.6,0,19.8-3.4,28.5-10.5l-7.7-11.8
	c-6.1,5-12.3,7.5-19.1,7.5c-10.2,0-15.9-6.6-15.9-18.3v-0.4h44v-4.7c0-15.8-3.3-26-10.2-33C740.7,35.1,732.3,32.2,723.5,32.2z
	 M734.8,61.9v1h-23c0-10.4,4.4-16.3,11.9-16.3c4,0,6.8,1.2,8.8,4.2C734.3,53.6,734.9,56.9,734.8,61.9L734.8,61.9z M808.8,63.3v16.8
	c-4,0-16,1-16,10.2v25.5c0,15.3-8.1,21.1-19,21.1h-15v-16h6.7c9,0,9.3-5.9,9.3-9.9V87.2c0-13.7,9-14.8,15-15.3v-0.3
	c-6-0.4-15-1.5-15-15.2V32.5c0-4-0.3-9.6-9.3-9.6h-6.7v-17h15.5c10,0,18.5,6.5,18.5,21.9v25.4C792.8,62.3,804.8,63.3,808.8,63.3z
	 M459.1,5.9h15.8v17h-7.5c-9,0-9.5,5.6-9.5,9.6v23.7c0,13.7-9,14.8-15,15.3v0.3c6,0.4,15,1.5,15,15.2V111c0,4,0.5,9.9,9.5,9.9h7.5
	v16h-15.8c-10.5,0-19.2-5.9-19.2-21.2V90.3c0-9.1-12-10.2-16-10.2V63.3c4,0,16-1,16-10.2V27.6C439.8,12.3,448.2,5.9,459.1,5.9z
	 M332.5,97.2l3.4,11.8c-3.4,1.3-7.5,2.1-11.8,2.1c-8.4,0-15.2-4-17.5-10.3c-1.5-3.8-1.7-6.2-1.7-17V27.4c0-9.9-0.4-15.9-1.1-22.7
	l20.1-4.6c0.7,4.1,1,9,1,19.6v58.9c0,13,0.2,14.8,1.4,16.8c0.7,1.3,2.4,2.1,4,2.1C331,97.5,331.5,97.5,332.5,97.2z M370.9,32.2
	c-10,0-17.6,3.2-23.7,10.2c-6.6,7.4-9.4,16.4-9.4,29.9c0,23.8,14,39.1,35.7,39.1c10.6,0,19.8-3.4,28.5-10.5l-7.7-11.8
	c-6,5-12.5,7.5-19.3,7.5c-10.2,0-16-6.6-16-18.3v-0.4h44v-4.7c0-15.8-3.2-26-10.1-33C387.9,35.1,379.6,32.2,370.9,32.2z M381.8,62.9
	h-22c0-10.4,4.1-16.3,11.6-16.3c4,0,6.5,1.5,8.4,4.4c1.8,2.8,2,5.8,2,11.4V62.9z"/>
</svg>
